<?xml version="1.0" encoding="utf-8"?>
<!-- Generator: Adobe Illustrator 16.0.0, SVG Export Plug-In . SVG Version: 6.00 Build 0)  -->
<!DOCTYPE svg PUBLIC "-//W3C//DTD SVG 1.1//EN" "http://www.w3.org/Graphics/SVG/1.1/DTD/svg11.dtd">
<svg version="1.1" id="Capa_1" xmlns="http://www.w3.org/2000/svg" xmlns:xlink="http://www.w3.org/1999/xlink" x="0px" y="0px"
	 width="485.213px" height="485.211px" viewBox="0 0 485.213 485.211" enable-background="new 0 0 485.213 485.211"
	 xml:space="preserve">
<g>
	<path fill="#F52D2D" d="M60.652,75.816V15.163C60.652,6.781,67.433,0,75.817,0c8.38,0,15.161,6.781,15.161,15.163v60.653
		c0,8.38-6.781,15.161-15.161,15.161C67.433,90.978,60.652,84.196,60.652,75.816z M318.424,90.978
		c8.378,0,15.163-6.781,15.163-15.161V15.163C333.587,6.781,326.802,0,318.424,0c-8.382,0-15.168,6.781-15.168,15.163v60.653
		C303.256,84.196,310.042,90.978,318.424,90.978z M485.212,363.907c0,66.996-54.312,121.307-121.303,121.307
		c-66.986,0-121.302-54.311-121.302-121.307c0-66.986,54.315-121.301,121.302-121.301
		C430.9,242.606,485.212,296.918,485.212,363.907z M454.89,363.907c0-50.162-40.81-90.977-90.979-90.977
		c-50.166,0-90.976,40.814-90.976,90.977c0,50.17,40.81,90.979,90.976,90.979C414.08,454.885,454.89,414.077,454.89,363.907z
		 M121.305,181.955H60.652v60.651h60.653V181.955z M60.652,333.584h60.653V272.93H60.652V333.584z M151.629,242.606h60.654v-60.651
		h-60.654V242.606z M151.629,333.584h60.654V272.93h-60.654V333.584z M30.328,360.891V151.628H363.91v60.653h30.327V94
		c0-18.421-14.692-33.349-32.844-33.349h-12.646v15.166c0,16.701-13.596,30.325-30.322,30.325c-16.73,0-30.326-13.624-30.326-30.325
		V60.651H106.14v15.166c0,16.701-13.593,30.325-30.322,30.325c-16.733,0-30.327-13.624-30.327-30.325V60.651H32.859
		C14.707,60.651,0.001,75.579,0.001,94v266.892c0,18.36,14.706,33.346,32.858,33.346h179.424v-30.331H32.859
		C31.485,363.907,30.328,362.487,30.328,360.891z M303.256,242.606v-60.651h-60.648v60.651H303.256z M409.399,363.907h-45.49v-45.49
		c0-8.377-6.781-15.158-15.163-15.158s-15.159,6.781-15.159,15.158v60.658c0,8.377,6.777,15.162,15.159,15.162h60.653
		c8.382,0,15.162-6.785,15.162-15.162C424.563,370.692,417.781,363.907,409.399,363.907z"/>
</g>
</svg>
