<?xml version="1.0" encoding="utf-8"?>
<!-- Generator: Adobe Illustrator 16.0.0, SVG Export Plug-In . SVG Version: 6.00 Build 0)  -->
<!DOCTYPE svg PUBLIC "-//W3C//DTD SVG 1.1//EN" "http://www.w3.org/Graphics/SVG/1.1/DTD/svg11.dtd">
<svg version="1.1" id="Capa_1" xmlns="http://www.w3.org/2000/svg" xmlns:xlink="http://www.w3.org/1999/xlink" x="0px" y="0px"
	 width="120.382px" height="121.307px" viewBox="0 0 120.382 121.307" enable-background="new 0 0 120.382 121.307"
	 xml:space="preserve">
<linearGradient id="SVGID_1_" gradientUnits="userSpaceOnUse" x1="24.6646" y1="41.1418" x2="95.7175" y2="82.1643" gradientTransform="matrix(1 0 0 -1 0 122.3062)">
	<stop  offset="0" style="stop-color:#F52D2D"/>
	<stop  offset="1" style="stop-color:#F52D2D"/>
</linearGradient>
<circle fill="url(#SVGID_1_)" cx="60.191" cy="60.653" r="41.015"/>
<circle fill="none" stroke="#F52D2D" stroke-width="2" stroke-miterlimit="10" cx="60.191" cy="60.652" r="51.293"/>
<g>
	<g>
		<path fill="#FFFFFF" d="M77.009,40.778C77.009,40.778,77.009,40.778,77.009,40.778h-9.938v-2.293c0-0.422-0.343-0.765-0.765-0.765
			l0,0h-12.23c-0.423,0-0.765,0.342-0.765,0.764v0.001v2.293h-9.938c-0.422,0-0.765,0.342-0.765,0.765l0,0v41.278
			c0,0.422,0.342,0.764,0.765,0.765l0,0h33.634c0.422,0,0.765-0.343,0.765-0.765l0,0V41.543
			C77.773,41.121,77.431,40.778,77.009,40.778z M54.84,39.25h10.702v4.586H54.84V39.25z M76.245,82.056H44.139V42.307h9.173V44.6
			c0,0.422,0.342,0.765,0.764,0.765h0.001h12.23c0.422,0,0.764-0.343,0.765-0.765l0,0v-2.293h9.173V82.056z"/>
	</g>
</g>
<g>
	<g>
		<rect x="45.667" y="72.884" fill="#FFFFFF" width="16.817" height="1.528"/>
	</g>
</g>
<g>
	<g>
		<rect x="64.013" y="72.884" fill="#FFFFFF" width="10.702" height="1.528"/>
	</g>
</g>
<g>
	<g>
		<rect x="45.667" y="75.941" fill="#FFFFFF" width="29.048" height="1.528"/>
	</g>
</g>
<g>
	<g>
		<rect x="45.667" y="78.999" fill="#FFFFFF" width="12.23" height="1.529"/>
	</g>
</g>
<g>
	<g>
		<rect x="59.427" y="78.999" fill="#FFFFFF" width="15.288" height="1.529"/>
	</g>
</g>
<g>
	<g>
		<path fill="#FFFFFF" d="M51.019,59.888L51.019,59.888h-4.587c-0.422,0-0.765,0.342-0.765,0.764v0.001v9.938
			c0,0.422,0.342,0.764,0.765,0.764l0,0h4.587c0.422,0,0.764-0.342,0.764-0.764l0,0v-9.938
			C51.783,60.231,51.441,59.888,51.019,59.888z M50.254,69.826h-3.058v-8.408h3.058V69.826z"/>
	</g>
</g>
<g>
	<g>
		<path fill="#FFFFFF" d="M58.664,56.831C58.663,56.831,58.663,56.831,58.664,56.831h-4.587c-0.423,0-0.765,0.342-0.765,0.764v0.001
			v12.995c0,0.422,0.342,0.764,0.764,0.764h0.001h4.586c0.422,0,0.765-0.342,0.765-0.764l0,0V57.595
			C59.427,57.174,59.085,56.831,58.664,56.831z M57.898,69.826H54.84V58.359h3.058V69.826z"/>
	</g>
</g>
<g>
	<g>
		<path fill="#FFFFFF" d="M66.307,53.773L66.307,53.773H61.72c-0.422,0-0.764,0.342-0.764,0.764v0.001v16.053
			c-0.001,0.422,0.342,0.764,0.764,0.764l0,0h4.587c0.422,0,0.764-0.342,0.765-0.764l0,0V54.538
			C67.072,54.116,66.729,53.773,66.307,53.773z M65.542,69.826h-3.058V55.302h3.058V69.826z"/>
	</g>
</g>
<g>
	<g>
		<path fill="#FFFFFF" d="M73.952,50.716C73.951,50.716,73.951,50.716,73.952,50.716h-4.587c-0.422,0-0.765,0.342-0.765,0.764v0.001
			v19.11c0,0.422,0.342,0.764,0.764,0.764c0.001,0,0.001,0,0.001,0h4.586c0.423,0,0.765-0.342,0.765-0.764l0,0V51.48
			C74.715,51.058,74.374,50.716,73.952,50.716z M73.187,69.826h-3.059V52.244h3.059V69.826z"/>
	</g>
</g>
<g>
	<g>
		<path fill="#FFFFFF" d="M73.801,45.38l-7.645,1.528c-0.098,0.02-0.19,0.059-0.273,0.114l-6.688,4.458h-6.648
			c-0.144,0-0.283,0.04-0.405,0.116l-6.115,3.822l0.811,1.296l5.929-3.706h6.661c0.15,0,0.299-0.045,0.424-0.128l6.754-4.503
			l7.496-1.499L73.801,45.38z"/>
	</g>
</g>
</svg>
