<?xml version="1.0" encoding="utf-8"?>
<!-- Generator: Adobe Illustrator 16.0.0, SVG Export Plug-In . SVG Version: 6.00 Build 0)  -->
<!DOCTYPE svg PUBLIC "-//W3C//DTD SVG 1.1//EN" "http://www.w3.org/Graphics/SVG/1.1/DTD/svg11.dtd">
<svg version="1.1" id="Capa_1" xmlns="http://www.w3.org/2000/svg" xmlns:xlink="http://www.w3.org/1999/xlink" x="0px" y="0px"
	 width="612px" height="609.5px" viewBox="0 182.5 612 609.5" enable-background="new 0 182.5 612 609.5" xml:space="preserve">
<g>
	<g>
		<path d="M462.245,300.211h-33.143c5.124-6.811,8.166-15.272,8.166-24.434c0-22.454-18.271-40.723-40.723-40.723
			c-13.526,0-23.501,4.846-31.389,15.251c-6.6,8.704-11.425,20.858-17.479,36.214c-6.054-15.355-10.88-27.51-17.479-36.214
			c-7.89-10.405-17.863-15.251-31.388-15.251c-22.456,0-40.723,18.269-40.723,40.723c0,9.161,3.042,17.623,8.167,24.434h-33.144
			c-13.473,0-24.434,10.96-24.434,24.434v16.289c0,10.617,6.81,19.67,16.289,23.032v124.655c0,13.473,10.96,24.434,24.434,24.434
			h196.555c13.472,0,24.434-10.961,24.434-24.434V363.966c9.48-3.362,16.289-12.415,16.289-23.032v-16.289
			C486.679,311.171,475.717,300.211,462.245,300.211z M362.63,293.011c12.477-31.653,17.22-41.667,33.916-41.667
			c13.472,0,24.434,10.96,24.434,24.434s-10.962,24.434-24.434,24.434h-36.767C360.776,297.705,361.729,295.293,362.63,293.011z
			 M298.812,251.344c16.696,0,21.44,10.014,33.918,41.667c0.898,2.282,1.849,4.694,2.847,7.2h-36.765
			c-13.473,0-24.434-10.96-24.434-24.434S285.338,251.344,298.812,251.344z M315.101,496.766h-65.699
			c-4.49,0-8.145-3.654-8.145-8.145V365.367h73.844V496.766z M315.101,349.078h-81.988c-4.49,0-8.145-3.654-8.145-8.145v-16.289
			c0-4.491,3.655-8.145,8.145-8.145h81.988V349.078z M363.968,496.766H331.39V316.5c1.706,0,23.217,0,32.578,0V496.766z
			 M454.101,488.621c0,4.49-3.654,8.145-8.145,8.145h-65.699V365.367h73.844V488.621z M470.39,340.934
			c0,4.491-3.654,8.145-8.145,8.145h-81.988V316.5h81.988c4.49,0,8.145,3.654,8.145,8.145V340.934z"/>
	</g>
</g>
<g id="XMLID_105_">
	<path id="XMLID_109_" d="M30.797,291.465l44.005,24.206l65.119,260.451l-30.683,24.193c-7.281,5.736-11.487,14.438-11.487,23.76
		v45.623c0,16.502,13.397,30.08,29.949,30.291l30.191,0.436c-1.517,4.742-2.32,9.756-2.32,14.898
		c0,26.795,21.753,48.568,48.568,48.568c26.738,0,48.567-21.773,48.567-48.568c0-4.645-0.623-9.213-1.961-13.58l201.183,2.836
		c-0.823,3.498-1.221,7.094-1.221,10.756c0,26.793,21.756,48.572,48.536,48.572c26.831,0,48.609-21.779,48.609-48.572
		c0-3.176-0.345-6.348-0.971-9.434l13.22,0.209c16.525,0,30.066-13.426,30.34-29.879c0.073-8.09-2.987-15.771-8.611-21.568
		c-5.651-5.785-13.192-9.047-21.232-9.184l-402.233-5.641v-1.045l21.255-16.801c2.062,0.289,3.91,0.463,5.876,0.463l328.957,3.037
		c20.631,0,38.277-14.041,42.857-34.125l42.664-185.633c5.378-23.633-9.46-47.266-33.106-52.705l0,0
		c-23.644-5.426-47.267,9.422-52.69,33.04L479.43,537.154l-259.117-2.387l-64.791-259.072c-2.956-11.824-10.823-21.99-21.5-27.854
		l-60.85-33.464c-21.268-11.712-48.044-3.906-59.742,17.351C1.755,252.996,9.527,279.789,30.797,291.465z M34.58,243.339
		c5.302-9.584,17.424-13.13,26.994-7.843l60.813,33.452c4.828,2.702,8.388,7.245,9.712,12.621l67.067,268.093
		c1.3,5.328,6.105,9.061,11.549,9.135l278.2,2.537c5.676-0.248,10.604-3.83,11.825-9.305l36.91-160.568
		c2.438-10.681,13.165-17.364,23.871-14.961c10.678,2.479,17.348,13.166,14.906,23.859l-42.637,185.582
		c-2.065,9.096-10.029,15.443-19.563,15.443l-328.622-3.061c-1.641,0-3.439-0.287-5.451-0.91c-3.788-1.131-7.863-0.35-10.896,2.092
		l-30.435,23.957c-2.905,2.277-4.572,5.76-4.572,9.432v18.805c0,6.611,5.301,11.986,11.892,12.061l414.055,5.822
		c1.646,0.039,3.21,0.713,4.357,1.895c0.647,0.695,1.792,2.164,1.743,4.404c0,3.373-2.814,6.1-6.274,6.1l-31.386-0.438
		c-4.703,0-8.886,2.504-10.953,6.609c-2.09,4.096-1.668,8.998,1.097,12.656c3.261,4.346,4.929,9.348,4.929,14.537
		c0,13.527-10.926,24.441-24.468,24.441c-13.466,0-24.417-10.914-24.417-24.441c0-6.795,2.937-11.949,5.353-15.07
		c2.912-3.6,3.46-8.477,1.494-12.66c-1.994-4.145-6.149-6.816-10.779-6.867l-240.882-3.371c-0.13,0-0.157,0-0.231,0
		c-4.861,0-9.242,2.9-11.102,7.377c-1.91,4.518-0.838,9.783,2.639,13.217c4.674,4.656,7.263,10.83,7.263,17.363
		c0,13.527-10.971,24.441-24.442,24.441c-13.498,0-24.469-10.914-24.469-24.441c0-6.771,2.82-13.057,7.835-17.799
		c3.584-3.387,4.78-8.586,3.063-13.154c-1.798-4.58-6.144-7.678-11.052-7.729l-51.585-0.756c-3.285-0.029-6.069-2.816-6.069-6.178
		v-45.623c0-1.904,0.885-3.709,2.396-4.865l36.702-29.021c3.741-2.938,5.382-7.766,4.232-12.432L96.949,304.729
		c-0.83-3.234-2.956-6.036-5.951-7.615l-48.579-26.77C32.787,265.042,29.277,252.983,34.58,243.339z"/>
</g>
</svg>
