<?xml version="1.0" encoding="utf-8"?>
<!-- Generator: Adobe Illustrator 16.0.0, SVG Export Plug-In . SVG Version: 6.00 Build 0)  -->
<!DOCTYPE svg PUBLIC "-//W3C//DTD SVG 1.1//EN" "http://www.w3.org/Graphics/SVG/1.1/DTD/svg11.dtd">
<svg version="1.1" id="Capa_1" xmlns="http://www.w3.org/2000/svg" xmlns:xlink="http://www.w3.org/1999/xlink" x="0px" y="0px"
	 width="612px" height="609.5px" viewBox="0 0 612 609.5" enable-background="new 0 0 612 609.5" xml:space="preserve">
<g>
	<g>
		<path fill="#63C282" d="M466.269,139.604h-33.144c5.124-6.811,8.166-15.272,8.166-24.434c0-22.454-18.271-40.723-40.723-40.723
			c-13.526,0-23.501,4.846-31.389,15.251c-6.601,8.704-11.425,20.858-17.479,36.214c-6.054-15.355-10.88-27.51-17.479-36.214
			c-7.891-10.405-17.863-15.251-31.389-15.251c-22.455,0-40.723,18.269-40.723,40.723c0,9.161,3.042,17.623,8.167,24.434h-33.144
			c-13.473,0-24.435,10.96-24.435,24.434v16.289c0,10.617,6.81,19.67,16.289,23.032v124.655c0,13.473,10.96,24.434,24.435,24.434
			h196.555c13.472,0,24.434-10.961,24.434-24.434V203.358c9.48-3.362,16.289-12.415,16.289-23.032v-16.289
			C490.702,150.563,479.74,139.604,466.269,139.604z M366.653,132.403c12.478-31.653,17.22-41.667,33.916-41.667
			c13.472,0,24.435,10.96,24.435,24.434s-10.963,24.434-24.435,24.434h-36.767C364.8,137.098,365.752,134.686,366.653,132.403z
			 M302.835,90.736c16.696,0,21.44,10.014,33.919,41.667c0.897,2.282,1.849,4.694,2.847,7.2h-36.766
			c-13.473,0-24.434-10.96-24.434-24.434S289.361,90.736,302.835,90.736z M319.124,336.158h-65.699
			c-4.489,0-8.145-3.654-8.145-8.145V204.76h73.844V336.158z M319.124,188.471h-81.988c-4.489,0-8.145-3.654-8.145-8.145v-16.289
			c0-4.492,3.655-8.146,8.145-8.146h81.988V188.471z M367.991,336.158h-32.578V155.893c1.706,0,23.218,0,32.578,0V336.158
			L367.991,336.158z M458.124,328.014c0,4.49-3.653,8.145-8.145,8.145H384.28V204.76h73.844V328.014z M474.413,180.326
			c0,4.491-3.653,8.146-8.145,8.146H384.28v-32.579h81.988c4.49,0,8.145,3.654,8.145,8.145V180.326z"/>
	</g>
</g>
</svg>
