<?xml version="1.0" encoding="utf-8"?>
<!-- Generator: Adobe Illustrator 16.0.0, SVG Export Plug-In . SVG Version: 6.00 Build 0)  -->
<!DOCTYPE svg PUBLIC "-//W3C//DTD SVG 1.1//EN" "http://www.w3.org/Graphics/SVG/1.1/DTD/svg11.dtd">
<svg version="1.1" id="Capa_1" xmlns="http://www.w3.org/2000/svg" xmlns:xlink="http://www.w3.org/1999/xlink" x="0px" y="0px"
	 width="612px" height="609.5px" viewBox="0 0 612 609.5" enable-background="new 0 0 612 609.5" xml:space="preserve">
<g>
	<g>
		<path d="M1068.488,65.157h-33.144c5.124-6.811,8.166-15.272,8.166-24.434c0-22.454-18.271-40.723-40.723-40.723
			c-13.526,0-23.501,4.846-31.389,15.251c-6.601,8.704-11.425,20.858-17.479,36.214c-6.054-15.355-10.88-27.51-17.479-36.214
			C928.551,4.846,918.578,0,905.053,0c-22.455,0-40.723,18.269-40.723,40.723c0,9.161,3.042,17.623,8.167,24.434h-33.144
			c-13.473,0-24.435,10.96-24.435,24.434v16.289c0,10.617,6.81,19.67,16.289,23.032v124.656c0,13.473,10.96,24.434,24.435,24.434
			h196.555c13.472,0,24.434-10.961,24.434-24.434V128.912c9.48-3.362,16.289-12.415,16.289-23.032V89.59
			C1092.922,76.117,1081.96,65.157,1068.488,65.157z M968.873,57.957c12.478-31.653,17.22-41.667,33.916-41.667
			c13.472,0,24.435,10.96,24.435,24.434s-10.963,24.434-24.435,24.434h-36.767C967.02,62.651,967.972,60.239,968.873,57.957z
			 M905.055,16.29c16.696,0,21.44,10.014,33.919,41.667c0.897,2.282,1.849,4.694,2.847,7.2h-36.766
			c-13.473,0-24.434-10.96-24.434-24.434S891.581,16.29,905.055,16.29z M921.344,261.712h-65.699c-4.489,0-8.145-3.654-8.145-8.145
			V130.313h73.844V261.712z M921.344,114.024h-81.988c-4.489,0-8.145-3.654-8.145-8.145V89.59c0-4.492,3.655-8.146,8.145-8.146
			h81.988V114.024z M970.211,261.712h-32.578V81.446c1.706,0,23.218,0,32.578,0V261.712L970.211,261.712z M1060.344,253.567
			c0,4.49-3.653,8.145-8.145,8.145H986.5V130.313h73.844V253.567z M1076.633,105.879c0,4.491-3.653,8.146-8.145,8.146H986.5V81.446
			h81.988c4.49,0,8.145,3.654,8.145,8.145V105.879z"/>
	</g>
</g>
<g id="XMLID_105_">
	<path id="XMLID_109_" fill="#63C282" d="M32.259,126.101l44.005,24.206l65.119,260.451L110.7,434.951
		c-7.281,5.736-11.487,14.438-11.487,23.76v45.623c0,16.502,13.397,30.08,29.949,30.291l30.191,0.436
		c-1.517,4.742-2.32,9.756-2.32,14.898c0,26.795,21.753,48.568,48.568,48.568c26.738,0,48.567-21.773,48.567-48.568
		c0-4.645-0.623-9.213-1.961-13.58l201.183,2.836c-0.822,3.498-1.221,7.094-1.221,10.756c0,26.793,21.756,48.572,48.536,48.572
		c26.831,0,48.608-21.779,48.608-48.572c0-3.176-0.345-6.348-0.971-9.434l13.22,0.209c16.525,0,30.066-13.426,30.341-29.879
		c0.072-8.09-2.987-15.771-8.611-21.568c-5.651-5.785-13.192-9.047-21.232-9.184l-402.233-5.641v-1.045l21.255-16.801
		c2.062,0.289,3.91,0.463,5.876,0.463l328.957,3.037c20.631,0,38.277-14.041,42.856-34.125l42.664-185.634
		c5.378-23.633-9.46-47.266-33.105-52.704l0,0c-23.645-5.426-47.268,9.422-52.69,33.039l-34.748,151.086l-259.117-2.389
		l-64.791-259.071c-2.956-11.824-10.823-21.99-21.5-27.854l-60.85-33.464C53.366,37.301,26.59,45.107,14.892,66.364
		C3.217,87.632,10.989,114.425,32.259,126.101z M36.042,77.975c5.302-9.584,17.424-13.13,26.994-7.843l60.813,33.452
		c4.828,2.702,8.388,7.245,9.712,12.621l67.067,268.094c1.3,5.328,6.105,9.061,11.549,9.135l278.2,2.537
		c5.676-0.248,10.604-3.83,11.825-9.305l36.91-160.569c2.438-10.682,13.165-17.363,23.871-14.961
		c10.678,2.479,17.348,13.166,14.905,23.859l-42.637,185.583c-2.065,9.096-10.029,15.441-19.563,15.441l-328.622-3.061
		c-1.641,0-3.439-0.287-5.451-0.91c-3.788-1.131-7.863-0.35-10.896,2.092l-30.435,23.957c-2.905,2.277-4.572,5.76-4.572,9.434
		v18.805c0,6.611,5.301,11.986,11.892,12.061l414.055,5.822c1.646,0.039,3.21,0.713,4.356,1.895
		c0.647,0.695,1.792,2.164,1.743,4.404c0,3.373-2.813,6.1-6.273,6.1L530.1,516.18c-4.703,0-8.886,2.504-10.953,6.609
		c-2.09,4.096-1.668,8.998,1.098,12.654c3.261,4.348,4.929,9.35,4.929,14.537c0,13.527-10.926,24.441-24.468,24.441
		c-13.466,0-24.417-10.914-24.417-24.441c0-6.795,2.937-11.947,5.353-15.068c2.912-3.602,3.46-8.479,1.494-12.66
		c-1.994-4.146-6.148-6.816-10.779-6.867l-240.881-3.371c-0.13,0-0.157,0-0.231,0c-4.861,0-9.242,2.9-11.102,7.377
		c-1.91,4.518-0.838,9.783,2.639,13.217c4.674,4.656,7.263,10.83,7.263,17.363c0,13.527-10.971,24.441-24.442,24.441
		c-13.498,0-24.469-10.914-24.469-24.441c0-6.771,2.82-13.057,7.835-17.799c3.584-3.387,4.78-8.586,3.063-13.154
		c-1.798-4.58-6.144-7.678-11.052-7.729l-51.585-0.756c-3.285-0.029-6.069-2.816-6.069-6.18V458.73c0-1.902,0.885-3.709,2.396-4.863
		l36.702-29.021c3.741-2.938,5.382-7.766,4.232-12.432L98.411,139.365c-0.83-3.234-2.956-6.036-5.951-7.615L43.881,104.98
		C34.249,99.678,30.739,87.619,36.042,77.975z"/>
</g>
</svg>
