<?xml version="1.0" encoding="utf-8"?>
<!-- Generator: Adobe Illustrator 16.0.0, SVG Export Plug-In . SVG Version: 6.00 Build 0)  -->
<!DOCTYPE svg PUBLIC "-//W3C//DTD SVG 1.1//EN" "http://www.w3.org/Graphics/SVG/1.1/DTD/svg11.dtd">
<svg version="1.1" id="Capa_1" xmlns="http://www.w3.org/2000/svg" xmlns:xlink="http://www.w3.org/1999/xlink" x="0px" y="0px"
	 width="37.833px" height="35.902px" viewBox="0 0 37.833 35.902" enable-background="new 0 0 37.833 35.902" xml:space="preserve">
<g id="refer" display="none">
</g>
<g id="app">
	<g>
		<path fill="#F52D2D" stroke="#FFFFFF" stroke-miterlimit="10" d="M35.813,29.693c0,2.915-2.362,5.28-5.279,5.28H7.3
			c-2.917,0-5.28-2.365-5.28-5.28V6.458c0-2.916,2.363-5.28,5.28-5.28h23.233c2.917,0,5.279,2.365,5.279,5.28V29.693z"/>
		<rect x="7.961" y="8.262" fill="#FFFFFF" width="5.743" height="4.897"/>
		<rect x="7.7" y="6.246" fill="#FFFFFF" width="6.265" height="1.748"/>
		<rect x="7.961" y="16.633" fill="#FFFFFF" width="5.743" height="4.9"/>
		<rect x="7.685" y="14.62" fill="#FFFFFF" width="6.265" height="1.75"/>
		<rect x="15.532" y="15.601" fill="#FFFFFF" width="5.742" height="4.901"/>
		<rect x="15.253" y="13.586" fill="#FFFFFF" width="6.265" height="1.75"/>
		<rect x="7.961" y="25.004" fill="#FFFFFF" width="5.743" height="4.9"/>
		<rect x="7.7" y="22.987" fill="#FFFFFF" width="6.265" height="1.746"/>
		<rect x="24.145" y="25.004" fill="#FFFFFF" width="5.742" height="4.9"/>
		<rect x="23.883" y="22.987" fill="#FFFFFF" width="6.265" height="1.746"/>
		<rect x="15.532" y="24.231" fill="#FFFFFF" width="6.786" height="5.674"/>
		<rect x="15.239" y="21.957" fill="#FFFFFF" width="7.31" height="1.998"/>
	</g>
</g>
<g id="prop2" display="none">
</g>
</svg>
