<?xml version="1.0" encoding="utf-8"?>
<!-- Generator: Adobe Illustrator 16.0.0, SVG Export Plug-In . SVG Version: 6.00 Build 0)  -->
<!DOCTYPE svg PUBLIC "-//W3C//DTD SVG 1.1//EN" "http://www.w3.org/Graphics/SVG/1.1/DTD/svg11.dtd">
<svg version="1.1" id="Capa_1" xmlns="http://www.w3.org/2000/svg" xmlns:xlink="http://www.w3.org/1999/xlink" x="0px" y="0px"
	 width="37.833px" height="35.902px" viewBox="0 0 37.833 35.902" enable-background="new 0 0 37.833 35.902" xml:space="preserve">
<g id="refer" display="none">
</g>
<g id="app">
	<g>
		<path fill="none" stroke="#FFFFFF" stroke-miterlimit="10" d="M42.333,33.272c0,4.043-3.274,7.318-7.317,7.318H2.818
			c-4.043,0-7.318-3.275-7.318-7.318V1.074c0-4.041,3.275-7.318,7.318-7.318h32.197c4.043,0,7.317,3.277,7.317,7.318V33.272z"/>
		<g>
			<path fill="#3F3F3F" d="M19.108,31.065c-3.759,0-7.519,0.004-11.278-0.006c-0.885,0-1.636-0.586-1.921-1.447
				c-0.089-0.27-0.108-0.576-0.077-0.873c0.041-0.418-0.021-0.836-0.02-1.252c0.004-3.561-0.004-7.119,0.009-10.68
				c0.003-1-0.016-1.998-0.009-3c0.004-0.679,0.158-1.302,0.673-1.778c0.258-0.237,0.572-0.395,0.919-0.458
				c0.673-0.123,1.355-0.071,2.033-0.073c6.241-0.003,12.48,0,18.72,0.001c0.623,0,1.249-0.003,1.869,0.001
				c0.526,0.004,1.038,0.073,1.477,0.392c0.391,0.281,0.642,0.666,0.786,1.125c0.102,0.33,0.077,0.664,0.077,0.999
				c0.003,4.944,0.006,9.887-0.003,14.833c0,0.621-0.142,1.209-0.639,1.65c-0.404,0.359-0.866,0.564-1.409,0.564
				c-1.824,0-3.65,0-5.472,0C22.932,31.063,21.018,31.063,19.108,31.065C19.108,31.063,19.108,31.065,19.108,31.065z M12.218,21.025
				c-0.003,0.031-0.006,0.065,0.04,0.069c0.165,0.304,0.418,0.521,0.703,0.708c0.112,0.107,0.256,0.161,0.399,0.214
				c0.017,0.045,0.062,0.055,0.099,0.064c0.634,0.18,1.271,0.254,1.921,0.1c0.464-0.111,0.895-0.298,1.239-0.629
				c0.357-0.345,0.598-0.764,0.737-1.254c0.131-0.469,0.271-0.935,0.279-1.42c0.015-0.754,0.052-1.506-0.146-2.254
				c-0.135-0.512-0.311-1.002-0.633-1.412c-0.469-0.602-1.122-0.926-1.881-1c-0.5-0.049-0.996,0-1.478,0.15
				c-0.676,0.211-1.133,0.678-1.438,1.281c-0.354,0.696-0.471,1.459-0.5,2.231c-0.023,0.65,0.017,1.299,0.164,1.935
				c0.055,0.231,0.091,0.48,0.236,0.685c0.027,0.192,0.131,0.347,0.241,0.497C12.205,21.002,12.209,21.014,12.218,21.025z
				 M22.747,16.085c0.235-0.047,0.17-0.269,0.235-0.413c0.216-0.36,0.412-0.73,0.61-1.099c0.095-0.179,0.026-0.18-0.111-0.179
				c-0.478,0-0.955,0.015-1.434-0.007c-0.313-0.013-0.505,0.037-0.675,0.366c-0.379,0.725-0.78,1.437-1.2,2.138
				c-0.188,0.312-0.355,0.643-0.524,0.97c-0.441,0.834-0.926,1.645-1.39,2.463c-0.288,0.508-0.531,1.041-0.829,1.547
				c-0.37,0.635-0.711,1.284-1.068,1.925c-0.349,0.626-0.664,1.271-1.049,1.878c-0.27,0.43-0.498,0.883-0.725,1.336
				c-0.1,0.195-0.107,0.195,0.116,0.195c0.547,0,1.096-0.01,1.645,0c0.19,0.006,0.297-0.059,0.381-0.225
				c0.455-0.926,1.008-1.799,1.479-2.719c0.179-0.352,0.409-0.676,0.588-1.033c0.181-0.357,0.387-0.701,0.581-1.049
				c0.142-0.175,0.289-0.345,0.319-0.582c0.229-0.414,0.457-0.829,0.686-1.242c0.229-0.41,0.453-0.822,0.681-1.229
				c0.25-0.442,0.507-0.878,0.755-1.32c0.214-0.377,0.43-0.754,0.628-1.139C22.542,16.472,22.701,16.309,22.747,16.085z
				 M26.283,21.149c-0.055-0.109,0.093-0.297-0.152-0.348c-0.042-0.01-0.131-0.191-0.174-0.305c-0.121-0.348-0.446-0.488-0.7-0.703
				c-0.009-0.008-0.028-0.002-0.04-0.002c-0.172-0.178-0.397-0.253-0.623-0.326c-0.533-0.17-1.084-0.137-1.625-0.086
				c-0.508,0.047-0.965,0.268-1.356,0.575c-0.246,0.196-0.435,0.485-0.579,0.776c-0.317,0.637-0.438,1.327-0.479,2.035
				c-0.07,1.046,0.014,2.072,0.463,3.035c0.217,0.473,0.528,0.877,0.989,1.156c0.589,0.361,1.229,0.453,1.9,0.398
				c0.585-0.049,1.121-0.234,1.571-0.625c0.396-0.338,0.673-0.75,0.83-1.246c0.153-0.477,0.297-0.955,0.3-1.459
				c0.006-0.629,0.043-1.259-0.065-1.887C26.485,21.798,26.354,21.484,26.283,21.149z"/>
			<path fill="#3F3F3F" d="M23.03,10.568c-0.472,0.106-0.943,0.213-1.412,0.319c-0.23,0.053-0.375-0.067-0.495-0.35
				c-0.065-0.16,0.046-0.359,0.224-0.43c0.458-0.19,0.893-0.429,1.317-0.686c0.312-0.177,0.61-0.372,0.895-0.586
				c0.092-0.067,0.123-0.174,0.216-0.25c0.147-0.123,0.327-0.252,0.382-0.465l0.003-0.001c0.123,0.006,0.142-0.083,0.154-0.174
				c0.129-0.229,0.249-0.46,0.154-0.734c-0.093-0.269-0.298-0.395-0.567-0.435c-0.372-0.054-0.722,0.039-1.055,0.18
				c-1.067,0.457-1.898,1.213-2.595,2.128c-0.217,0.285-0.346,0.32-0.597,0.162c-0.224-0.14-0.273-0.396-0.117-0.666
				c0.39-0.68,0.803-1.344,1.269-1.977c0.509-0.686,1.063-1.319,1.688-1.89c0.552-0.503,1.157-0.94,1.869-1.189
				c0.591-0.209,1.214-0.317,1.832-0.171c0.762,0.177,1.359,0.606,1.674,1.343c0.41,0.976,0.29,1.915-0.214,2.837
				c-0.206,0.377-0.479,0.69-0.749,1.005c-0.126,0.147-0.301,0.271-0.459,0.392c-0.055,0-0.081,0.03-0.084,0.082l0,0
				c-0.08,0.003-0.135,0.057-0.2,0.091c-0.306,0.17-0.538,0.455-0.884,0.561c-0.041,0.011-0.071,0.037-0.071,0.087l0,0
				c-0.17,0.033-0.292,0.174-0.46,0.214c-0.013,0.001-0.023,0.009-0.029,0.021c-0.02-0.017-0.032-0.006-0.041,0.012
				c-0.333,0.154-0.704,0.201-1.023,0.39C23.45,10.446,23.238,10.507,23.03,10.568z"/>
			<path fill="#3F3F3F" d="M14.104,8.269c0.459,0.589,1.093,0.95,1.71,1.332c0.308,0.188,0.646,0.314,0.968,0.476
				c0.256,0.125,0.355,0.295,0.273,0.527c-0.087,0.243-0.297,0.33-0.565,0.261c-0.295-0.076-0.595-0.131-0.894-0.197
				c-0.604-0.133-1.19-0.332-1.772-0.54c-0.522-0.189-1.016-0.449-1.474-0.749c-0.504-0.334-0.973-0.729-1.37-1.209
				c-0.363-0.438-0.596-0.935-0.773-1.457c-0.161-0.473-0.175-0.968-0.066-1.469c0.142-0.636,0.455-1.145,0.987-1.515
				c0.208-0.143,0.427-0.261,0.67-0.326c0.185,0.004,0.35-0.096,0.538-0.083c0.261,0.02,0.521,0.004,0.782,0.004
				c0.556,0.104,1.066,0.321,1.547,0.612c0.682,0.415,1.291,0.913,1.814,1.512c0.426,0.486,0.827,0.986,1.189,1.523
				c0.359,0.535,0.678,1.089,1.007,1.638c0.178,0.299-0.017,0.681-0.367,0.718c-0.107,0.011-0.194-0.032-0.265-0.12
				c-0.355-0.456-0.723-0.902-1.159-1.284c-0.57-0.499-1.181-0.943-1.937-1.125c-0.059-0.015-0.122-0.012-0.183-0.018
				c-0.323-0.194-0.776-0.001-0.959,0.176c-0.073,0.071-0.169,0.181-0.115,0.32c0,0.042,0,0.083,0,0.125
				C13.68,7.764,13.812,8.057,14.104,8.269z"/>
			<path fill="#3F3F3F" d="M19.132,11.06c-0.432,0-0.863-0.005-1.293,0.003c-0.153,0.003-0.207-0.044-0.202-0.197
				c0.035-0.796,0.751-1.469,1.656-1.389c0.672,0.06,1.323,0.728,1.317,1.406c0,0.137-0.029,0.183-0.166,0.18
				C20.008,11.055,19.569,11.06,19.132,11.06z"/>
			<path fill="#3F3F3F" d="M15.426,18.216c0.027,0.558-0.012,1.108-0.179,1.642c-0.088,0.289-0.368,0.64-0.709,0.586
				c-0.14-0.021-0.248-0.085-0.335-0.178c-0.172-0.188-0.288-0.416-0.328-0.669c-0.104-0.649-0.131-1.306-0.084-1.962
				c0.029-0.412,0.055-0.832,0.254-1.212c0.123-0.231,0.298-0.37,0.567-0.366c0.275,0.004,0.455,0.146,0.562,0.397
				c0.205,0.478,0.27,0.978,0.252,1.494C15.423,18.037,15.426,18.126,15.426,18.216z"/>
			<path fill="#3F3F3F" d="M22.747,22.957c0.012-0.473,0.065-0.941,0.254-1.378c0.162-0.389,0.615-0.54,0.924-0.294
				c0.195,0.154,0.325,0.39,0.371,0.634c0.133,0.718,0.123,1.445,0.091,2.17c-0.018,0.353-0.073,0.702-0.228,1.028
				c-0.163,0.344-0.382,0.469-0.711,0.432c-0.218-0.027-0.444-0.307-0.522-0.596c-0.107-0.396-0.167-0.801-0.176-1.213
				C22.747,23.481,22.747,23.22,22.747,22.957z"/>
		</g>
	</g>
</g>
<g id="prop2" display="none">
</g>
</svg>
